<?xml version="1.0" standalone="no"?>
<!DOCTYPE svg PUBLIC "-//W3C//DTD SVG 20010904//EN"
 "http://www.w3.org/TR/2001/REC-SVG-20010904/DTD/svg10.dtd">
<svg version="1.0" xmlns="http://www.w3.org/2000/svg"
 width="512.000000pt" height="512.000000pt" viewBox="0 0 512.000000 512.000000"
 preserveAspectRatio="xMidYMid meet">
<metadata>
Created by potrace 1.11, written by Peter Selinger 2001-2013
</metadata>
<g transform="translate(0.000000,512.000000) scale(0.100000,-0.100000)"
fill="#000000" stroke="none">
<path d="M3900 3637 c-50 -25 -42 -107 12 -126 17 -6 80 -11 139 -11 l109 0 0
-422 -1 -423 -22 26 c-12 14 -39 47 -61 73 -91 112 -238 207 -381 247 -110 31
-277 31 -389 0 -163 -45 -323 -157 -429 -299 -53 -73 -111 -201 -132 -292 -22
-96 -22 -270 -1 -369 58 -268 270 -501 534 -589 68 -23 94 -26 222 -26 131 0
153 3 225 27 44 14 109 43 145 64 63 37 210 173 263 243 l26 35 1 -157 0 -158
193 0 c222 0 237 4 237 69 0 59 -15 65 -159 71 l-126 5 -3 1013 -2 1012 -188
0 c-129 0 -195 -4 -212 -13z m-255 -772 c126 -24 216 -74 315 -174 96 -97 138
-167 170 -285 28 -99 30 -261 5 -355 -58 -225 -250 -415 -473 -467 -101 -24
-264 -15 -362 19 -363 128 -532 557 -360 916 55 114 179 240 290 295 130 63
265 80 415 51z"/>
<path d="M522 3483 c-34 -29 -37 -66 -9 -99 l25 -29 716 -3 716 -3 -2 -372 -3
-372 -717 -5 c-658 -5 -719 -6 -734 -22 -23 -22 -22 -73 1 -98 18 -19 32 -20
734 -22 l716 -3 0 -415 0 -415 -717 -5 c-658 -5 -719 -6 -734 -22 -25 -25 -22
-77 5 -100 22 -17 60 -18 807 -18 l784 0 0 1010 0 1010 -784 0 c-732 0 -785
-1 -804 -17z"/>
</g>
</svg>
